<?xml version="1.0" standalone="no"?>
<!DOCTYPE svg PUBLIC "-//W3C//DTD SVG 20010904//EN"
 "http://www.w3.org/TR/2001/REC-SVG-20010904/DTD/svg10.dtd">
<svg version="1.0" xmlns="http://www.w3.org/2000/svg"
 width="224.000000pt" height="224.000000pt" viewBox="0 0 224.000000 224.000000"
 preserveAspectRatio="xMidYMid meet">
<metadata>
Created by potrace 1.14, written by Peter Selinger 2001-2017
</metadata>
<g transform="translate(0.000000,224.000000) scale(0.100000,-0.100000)"
fill="#000000" stroke="none">
<path d="M925 1790 c-9 -3 -24 -20 -35 -38 -11 -18 -28 -32 -39 -32 -11 0 -23
-4 -26 -10 -3 -5 -11 -10 -16 -10 -6 0 -7 5 -4 10 3 6 2 10 -3 10 -12 0 -34
-25 -27 -31 2 -3 -8 -5 -22 -4 -22 0 -27 -6 -37 -46 -7 -25 -22 -58 -34 -74
-12 -15 -19 -31 -16 -36 3 -5 0 -8 -7 -7 -6 2 -14 -3 -17 -11 -3 -8 0 -11 7
-7 6 4 11 3 11 -2 0 -5 -8 -12 -19 -15 -10 -2 -24 -19 -32 -36 -8 -18 -24 -34
-36 -37 -13 -4 -21 -10 -18 -14 3 -4 -3 -7 -13 -6 -9 0 -17 -6 -17 -14 0 -8 6
-14 14 -12 11 2 12 0 3 -11 -7 -8 -9 -17 -5 -21 4 -3 -2 -12 -12 -20 -12 -9
-14 -15 -7 -20 9 -5 8 -12 -1 -27 -10 -16 -9 -21 2 -28 8 -5 11 -16 8 -25 -3
-8 -2 -18 4 -22 5 -3 9 -13 8 -22 -3 -30 1 -43 10 -38 14 9 22 -23 11 -43 -12
-24 -3 -32 26 -25 18 5 24 2 24 -11 0 -9 5 -13 10 -10 6 3 10 1 10 -4 0 -6 -5
-11 -12 -11 -6 0 -3 -6 8 -14 18 -14 18 -15 2 -21 -20 -8 -24 -27 -5 -24 6 1
19 1 27 0 12 -1 11 -4 -3 -12 -9 -6 -15 -15 -12 -20 4 -5 11 -7 16 -4 20 13 7
-11 -23 -43 -28 -28 -33 -40 -32 -80 0 -26 8 -61 17 -78 l16 -31 -44 -33 c-25
-19 -47 -41 -50 -50 -6 -18 -46 -40 -73 -40 -30 0 -40 -19 -34 -62 3 -24 0
-43 -6 -47 -68 -42 -171 -146 -280 -284 -19 -24 -32 -33 -35 -25 -3 7 -4 -2
-2 -21 3 -24 -4 -47 -20 -75 -14 -23 -25 -36 -25 -31 0 6 -5 3 -11 -5 -8 -12
-9 -11 -4 6 4 17 1 21 -17 20 -17 -1 -24 -8 -26 -29 l-3 -27 1121 0 1121 0 -3
49 c-2 27 -7 47 -12 43 -5 -3 -6 2 -3 12 4 11 3 15 -4 10 -6 -3 -8 -15 -6 -26
3 -11 3 -26 0 -34 -7 -19 -29 10 -78 103 -20 40 -55 93 -76 117 -22 24 -39 50
-39 58 0 8 -16 33 -36 56 -20 24 -32 47 -28 53 4 7 3 9 -3 6 -5 -3 -30 14 -54
40 -50 52 -154 123 -179 123 -9 0 -31 16 -49 35 -17 19 -38 35 -46 35 -10 0
-6 8 11 27 28 30 27 38 -23 133 -38 74 -75 127 -99 145 -15 11 -13 16 20 52
41 46 69 114 60 150 -5 19 -2 25 14 29 11 3 25 18 32 32 11 24 9 28 -21 53
l-32 26 25 6 c21 6 24 11 20 34 -2 16 -11 36 -19 45 -9 10 -12 25 -8 38 5 16
2 23 -13 26 -14 4 -18 12 -14 30 2 13 -3 39 -12 58 -9 19 -16 38 -16 44 0 5
-20 22 -45 38 -33 20 -44 33 -40 45 4 12 -2 22 -17 30 -13 7 -23 11 -23 9 0
-2 -10 5 -23 15 -16 15 -40 20 -90 22 -69 2 -96 6 -122 16 -8 3 -26 6 -40 7
-14 0 -67 1 -118 3 -51 1 -99 0 -107 -3z m244 -957 c7 -5 -12 -20 -35 -27 -13
-4 -28 -1 -36 6 -7 7 -20 14 -28 16 -8 2 -19 7 -24 12 -8 8 114 2 123 -7z"/>
<path d="M2190 81 c0 -5 5 -13 10 -16 6 -3 10 -2 10 4 0 5 -4 13 -10 16 -5 3
-10 2 -10 -4z"/>
</g>
</svg>
