<?xml version="1.0" standalone="no"?>
<!DOCTYPE svg PUBLIC "-//W3C//DTD SVG 20010904//EN"
 "http://www.w3.org/TR/2001/REC-SVG-20010904/DTD/svg10.dtd">
<svg version="1.0" xmlns="http://www.w3.org/2000/svg"
 width="700.000000pt" height="700.000000pt" viewBox="0 0 700.000000 700.000000"
 preserveAspectRatio="xMidYMid meet">
<metadata>
Created by potrace 1.14, written by Peter Selinger 2001-2017
</metadata>
<g transform="translate(0.000000,700.000000) scale(0.100000,-0.100000)"
fill="#000000" stroke="none">
<path d="M1474 6231 c-2 -2 -4 -29 -4 -59 0 -55 12 -77 96 -182 29 -35 144
-181 209 -265 38 -49 74 -95 80 -102 5 -6 35 -44 65 -83 63 -82 214 -277 234
-301 7 -9 36 -45 63 -80 83 -107 377 -483 390 -499 10 -12 318 -406 542 -694
73 -92 100 -130 101 -139 0 -6 -314 -382 -340 -407 -3 -3 -19 -21 -35 -41 -43
-51 -152 -180 -236 -280 -26 -29 -102 -119 -169 -199 -67 -80 -134 -158 -149
-175 -28 -31 -214 -251 -266 -314 -47 -57 -359 -425 -365 -431 -3 -3 -54 -62
-113 -132 l-107 -128 0 -60 0 -60 1794 0 1794 0 7 48 c3 26 8 58 10 72 2 14
13 93 25 175 11 83 22 159 24 170 3 18 13 85 20 145 4 32 26 187 31 220 2 14
9 61 15 105 6 44 13 91 15 105 4 25 46 329 47 339 2 22 -7 29 -44 35 -24 4
-53 9 -65 13 -17 4 -23 1 -23 -11 0 -31 -73 -233 -112 -311 -52 -102 -89 -158
-147 -218 -134 -142 -334 -216 -651 -243 -98 -8 -1940 -12 -1945 -4 -2 3 22
35 53 71 82 95 101 117 156 184 28 33 53 62 56 65 3 3 41 48 85 100 44 52 90
106 101 120 12 14 41 48 64 75 23 28 52 61 63 75 22 25 227 268 259 305 9 11
71 85 139 165 67 80 136 161 153 180 17 20 51 60 76 90 25 29 50 58 55 64 6 6
31 36 56 66 25 30 98 117 163 193 71 84 114 143 109 150 -7 11 -213 276 -251
322 -9 11 -54 69 -101 130 -46 60 -111 144 -143 185 -33 41 -70 89 -83 105
-13 17 -91 118 -175 225 -83 107 -156 202 -163 210 -17 22 -221 283 -281 360
-27 36 -63 83 -80 105 -17 21 -38 47 -47 57 -9 10 -30 38 -46 61 l-31 42 852
-1 c864 -1 945 -3 1074 -29 323 -66 485 -309 527 -790 2 -16 3 -36 4 -42 1 -9
21 -13 67 -13 l65 0 -5 63 c-3 34 -8 98 -11 142 -3 44 -8 98 -10 120 -2 22 -7
76 -10 120 -3 44 -7 103 -10 130 -2 28 -7 86 -10 130 -3 44 -8 103 -10 130 -6
66 -15 174 -20 254 -3 35 -7 67 -11 70 -6 6 -3463 8 -3470 2z"/>
</g>
</svg>
